solid OBJECT
  facet normal -0.89726194847091134 -0.4414985796423172 -0
    outer loop
      vertex -51.961563110351563 30 1.8369095307335659e-15
      vertex -37.200035095214844 0 3.6738190614671318e-15
      vertex -51.961563110351563 30 10
    endloop
  endfacet
  facet normal -0.89726194847091123 -0.4414985796423172 0
    outer loop
      vertex -37.200035095214844 0 3.6738190614671318e-15
      vertex -37.200035095214844 0 10
      vertex -51.961563110351563 30 10
    endloop
  endfacet
  facet normal -0.066282526186531007 0.9978008953304921 0
    outer loop
      vertex -18.60003662109375 32.216159820556641 1.7012133702757693e-15
      vertex -51.961563110351563 30 1.8369095307335659e-15
      vertex -18.60003662109375 32.216159820556641 10
    endloop
  endfacet
  facet normal -0.066282526186531007 0.9978008953304921 -0
    outer loop
      vertex -51.961563110351563 30 1.8369095307335659e-15
      vertex -51.961563110351563 30 10
      vertex -18.60003662109375 32.216159820556641 10
    endloop
  endfacet
  facet normal -0.83097975453611406 0.55630265822760483 -0
    outer loop
      vertex -3.5762801417149603e-05 60 0
      vertex -18.60003662109375 32.216159820556641 1.7012133702757693e-15
      vertex -3.5762801417149603e-05 60 10
    endloop
  endfacet
  facet normal -0.83097975453611406 0.55630265822760483 -0
    outer loop
      vertex -18.60003662109375 32.216159820556641 1.7012133702757693e-15
      vertex -18.60003662109375 32.216159820556641 10
      vertex -3.5762801417149603e-05 60 10
    endloop
  endfacet
  facet normal 0.83097976772130988 0.55630263853215522 -0
    outer loop
      vertex -3.5762801417149603e-05 60 0
      vertex -3.5762801417149603e-05 60 10
      vertex 18.599964141845703 32.216159820556641 1.7012133702757693e-15
    endloop
  endfacet
  facet normal 0.83097976772130988 0.55630263853215522 0
    outer loop
      vertex 18.599964141845703 32.216159820556641 1.7012133702757693e-15
      vertex -3.5762801417149603e-05 60 10
      vertex 18.599964141845703 32.216159820556641 10
    endloop
  endfacet
  facet normal 0.066282382818058413 0.99780090485424999 -0
    outer loop
      vertex 18.599964141845703 32.216159820556641 1.7012133702757693e-15
      vertex 18.599964141845703 32.216159820556641 10
      vertex 51.961563110351563 30 1.8369095307335659e-15
    endloop
  endfacet
  facet normal 0.066282382818058413 0.99780090485424999 0
    outer loop
      vertex 51.961563110351563 30 1.8369095307335659e-15
      vertex 18.599964141845703 32.216159820556641 10
      vertex 51.961563110351563 30 10
    endloop
  endfacet
  facet normal 0.89726108973291696 -0.44150032485978802 0
    outer loop
      vertex 51.961563110351563 30 1.8369095307335659e-15
      vertex 51.961563110351563 30 10
      vertex 37.199962615966797 0 3.6738190614671318e-15
    endloop
  endfacet
  facet normal 0.89726108973291685 -0.44150032485978796 0
    outer loop
      vertex 37.199962615966797 0 3.6738190614671318e-15
      vertex 51.961563110351563 30 10
      vertex 37.199962615966797 0 10
    endloop
  endfacet
  facet normal 0.89726108973291685 0.44150032485978796 -0
    outer loop
      vertex 37.199962615966797 0 3.6738190614671318e-15
      vertex 37.199962615966797 0 10
      vertex 51.961563110351563 -30 5.5107285922006977e-15
    endloop
  endfacet
  facet normal 0.89726108973291685 0.44150032485978796 0
    outer loop
      vertex 51.961563110351563 -30 5.5107285922006977e-15
      vertex 37.199962615966797 0 10
      vertex 51.961563110351563 -30 10
    endloop
  endfacet
  facet normal 0.066277611983042106 -0.99780122176204278 -0
    outer loop
      vertex 51.961563110351563 -30 5.5107285922006977e-15
      vertex 51.961563110351563 -30 10
      vertex 18.599964141845703 -32.215999603271484 5.646414800021364e-15
    endloop
  endfacet
  facet normal 0.066277611983042106 -0.99780122176204278 -0
    outer loop
      vertex 18.599964141845703 -32.215999603271484 5.646414800021364e-15
      vertex 51.961563110351563 -30 10
      vertex 18.599964141845703 -32.215999603271484 10
    endloop
  endfacet
  facet normal 0.8309812506736437 -0.55630042335851848 -0
    outer loop
      vertex 18.599964141845703 -32.215999603271484 5.646414800021364e-15
      vertex 18.599964141845703 -32.215999603271484 10
      vertex -3.5762801417149603e-05 -60 7.3476381229342635e-15
    endloop
  endfacet
  facet normal 0.8309812506736437 -0.55630042335851848 0
    outer loop
      vertex -3.5762801417149603e-05 -60 7.3476381229342635e-15
      vertex 18.599964141845703 -32.215999603271484 10
      vertex -3.5762801417149603e-05 -60 10
    endloop
  endfacet
  facet normal -0.83098123748852937 -0.55630044305395998 -0
    outer loop
      vertex -18.60003662109375 -32.215999603271484 5.646414800021364e-15
      vertex -3.5762801417149603e-05 -60 7.3476381229342635e-15
      vertex -18.60003662109375 -32.215999603271484 10
    endloop
  endfacet
  facet normal -0.83098123748852937 -0.55630044305395998 -0
    outer loop
      vertex -3.5762801417149603e-05 -60 7.3476381229342635e-15
      vertex -3.5762801417149603e-05 -60 10
      vertex -18.60003662109375 -32.215999603271484 10
    endloop
  endfacet
  facet normal -0.066277755341286451 -0.99780121223965268 -0
    outer loop
      vertex -51.961563110351563 -30 5.5107285922006977e-15
      vertex -18.60003662109375 -32.215999603271484 5.646414800021364e-15
      vertex -51.961563110351563 -30 10
    endloop
  endfacet
  facet normal -0.066277755341286451 -0.99780121223965268 -0
    outer loop
      vertex -18.60003662109375 -32.215999603271484 5.646414800021364e-15
      vertex -18.60003662109375 -32.215999603271484 10
      vertex -51.961563110351563 -30 10
    endloop
  endfacet
  facet normal -0.89726194847091123 0.4414985796423172 0
    outer loop
      vertex -37.200035095214844 0 3.6738190614671318e-15
      vertex -51.961563110351563 -30 5.5107285922006977e-15
      vertex -37.200035095214844 0 10
    endloop
  endfacet
  facet normal -0.89726194847091134 0.4414985796423172 -0
    outer loop
      vertex -51.961563110351563 -30 5.5107285922006977e-15
      vertex -51.961563110351563 -30 10
      vertex -37.200035095214844 0 10
    endloop
  endfacet
  facet normal 2.7310989772648575e-25 -6.1230317556734879e-17 -1
    outer loop
      vertex -18.60003662109375 32.216159820556641 1.7012133702757693e-15
      vertex -37.200035095214844 0 3.6738190614671318e-15
      vertex -51.961563110351563 30 1.8369095307335659e-15
    endloop
  endfacet
  facet normal -4.4087841530623235e-24 -6.12303155217725e-17 -1
    outer loop
      vertex -37.200035095214844 0 3.6738190614671318e-15
      vertex -18.60003662109375 -32.215999603271484 5.646414800021364e-15
      vertex -51.961563110351563 -30 5.5107285922006977e-15
    endloop
  endfacet
  facet normal -0 -6.1230318029775407e-17 -1
    outer loop
      vertex -3.5762801417149603e-05 60 0
      vertex 18.599964141845703 32.216159820556641 1.7012133702757693e-15
      vertex -18.60003662109375 32.216159820556641 1.7012133702757693e-15
    endloop
  endfacet
  facet normal 0 -6.1230323157971651e-17 -1
    outer loop
      vertex -18.60003662109375 -32.215999603271484 5.646414800021364e-15
      vertex 18.599964141845703 -32.215999603271484 5.646414800021364e-15
      vertex -3.5762801417149603e-05 -60 7.3476381229342635e-15
    endloop
  endfacet
  facet normal -2.7310928080403765e-25 -6.1230317556734522e-17 -1
    outer loop
      vertex 18.599964141845703 32.216159820556641 1.7012133702757693e-15
      vertex 51.961563110351563 30 1.8369095307335659e-15
      vertex 37.199962615966797 0 3.6738190614671318e-15
    endloop
  endfacet
  facet normal 4.4087741929415827e-24 -6.1230315521766756e-17 -1
    outer loop
      vertex 37.199962615966797 0 3.6738190614671318e-15
      vertex 51.961563110351563 -30 5.5107285922006977e-15
      vertex 18.599964141845703 -32.215999603271484 5.646414800021364e-15
    endloop
  endfacet
  facet normal -3.8301686274824167e-24 -6.12303151877072e-17 -1
    outer loop
      vertex -18.60003662109375 32.216159820556641 1.7012133702757693e-15
      vertex -18.60003662109375 -32.215999603271484 5.646414800021364e-15
      vertex -37.200035095214844 0 3.6738190614671318e-15
    endloop
  endfacet
  facet normal -0 -6.12303151877072e-17 -1
    outer loop
      vertex -18.60003662109375 32.216159820556641 1.7012133702757693e-15
      vertex 18.599964141845703 32.216159820556641 1.7012133702757693e-15
      vertex -18.60003662109375 -32.215999603271484 5.646414800021364e-15
    endloop
  endfacet
  facet normal 1.9150818345239545e-24 -6.1230316293382472e-17 -1
    outer loop
      vertex 18.599964141845703 32.216159820556641 1.7012133702757693e-15
      vertex 37.199962615966797 0 3.6738190614671318e-15
      vertex -18.60003662109375 -32.215999603271484 5.646414800021364e-15
    endloop
  endfacet
  facet normal 0 -6.1230312976348509e-17 -1
    outer loop
      vertex 37.199962615966797 0 3.6738190614671318e-15
      vertex 18.599964141845703 -32.215999603271484 5.646414800021364e-15
      vertex -18.60003662109375 -32.215999603271484 5.646414800021364e-15
    endloop
  endfacet
endsolid OBJECT
